<?xml version="1.0" encoding="utf-8"?>
<!-- Generator: Adobe Illustrator 27.3.1, SVG Export Plug-In . SVG Version: 6.00 Build 0)  -->
<svg version="1.1" id="Layer_1" xmlns="http://www.w3.org/2000/svg" xmlns:xlink="http://www.w3.org/1999/xlink" x="0px" y="0px"
	 viewBox="0 0 10 10" style="enable-background:new 0 0 10 10;" xml:space="preserve">
<style type="text/css">
	.st0{fill:#EA4335;}
	.st1{fill:#FBBC05;}
	.st2{fill:#34A853;}
	.st3{fill:#4285F4;}
</style>
<g>
	<path class="st0" d="M2.9,7.1C2.8,6.8,2.7,6.6,2.6,6.5S2.2,6.3,2,6.3c-0.3,0-0.5,0.1-0.6,0.3C1.2,6.7,1.2,6.9,1.2,7.2
		c0,0.4,0.1,0.8,0.4,1.3c0,0,0,0.1,0.1,0.1C1.6,8.4,1.5,8.3,1.5,8.1c0-0.5,0.4-0.9,0.9-0.9c0.3,0,0.6,0.2,0.8,0.4
		C3.1,7.5,3,7.3,2.9,7.1z"/>
	<path class="st1" d="M8.8,6.9c0,0.6-0.2,1.1-0.5,1.6C8.1,9,7.7,9.3,7.1,9.6C6.5,9.9,5.8,10,5,10c-1,0-1.7-0.2-2.4-0.5
		C2.3,9.3,2,9,1.8,8.7c0,0,0,0,0,0c0-0.1-0.1-0.1-0.1-0.2C1.6,8.4,1.5,8.3,1.5,8.1c0-0.5,0.4-0.9,0.9-0.9c0.3,0,0.6,0.2,0.8,0.4
		c0,0.1,0.1,0.2,0.2,0.2C3.5,8,3.7,8.2,3.9,8.4c0.3,0.1,0.6,0.2,1,0.2c0.6,0,1-0.1,1.4-0.4c0.4-0.3,0.5-0.6,0.5-1
		c0-0.3-0.1-0.6-0.3-0.8C6.5,6.3,6.4,6.2,6.3,6.1c0.1,0.1,0.3,0.1,0.5,0.1c0.5,0,0.9-0.4,0.9-0.9c0-0.3-0.2-0.6-0.4-0.8
		c0.2,0.1,0.4,0.2,0.6,0.3c0.3,0.2,0.5,0.5,0.7,0.8C8.8,6,8.8,6.4,8.8,6.9z"/>
	<path class="st2" d="M7.7,5.3c0,0.5-0.4,0.9-0.9,0.9c-0.2,0-0.3,0-0.5-0.1c0,0,0,0-0.1,0C6.1,6,6,6,5.9,5.9
		C5.5,5.8,5.1,5.7,4.6,5.6C3.9,5.4,3.3,5.2,2.9,5C2.4,4.8,2,4.5,1.8,4.1C1.5,3.7,1.3,3.3,1.3,2.7c0-0.5,0.1-1,0.4-1.4
		C2,1,2.2,0.8,2.4,0.7C2.3,0.8,2.2,1,2.2,1.2C2.2,1.6,2.6,2,3,2c0.2,0,0.3,0,0.4-0.1C3.3,2,3.2,2.3,3.2,2.5c0,0.2,0.1,0.4,0.2,0.5
		c0.1,0.1,0.2,0.3,0.4,0.4c0.2,0.1,0.4,0.2,0.6,0.2c0.2,0,0.5,0.1,0.9,0.2c0.5,0.1,1,0.3,1.5,0.4c0.1,0,0.1,0,0.2,0.1h0
		c0.1,0,0.2,0.1,0.3,0.1c0,0,0,0,0,0C7.5,4.7,7.7,5,7.7,5.3z"/>
	<path class="st3" d="M8.4,2.4c0,0.2-0.1,0.4-0.2,0.6C8,3.2,7.8,3.3,7.6,3.3C7.3,3.3,7.2,3.2,7,3.1C6.9,3,6.8,2.8,6.7,2.5
		C6.5,2.2,6.3,1.9,6,1.7C5.8,1.5,5.4,1.4,4.8,1.4c-0.5,0-0.9,0.1-1.2,0.3c0,0-0.1,0.1-0.1,0.1c0,0,0,0,0,0C3.3,1.9,3.2,2,3,2
		C2.6,2,2.2,1.6,2.2,1.2c0-0.2,0.1-0.4,0.2-0.5c0.1-0.1,0.3-0.2,0.4-0.2h0C2.9,0.4,3,0.3,3,0.3C3.6,0.1,4.2,0,5,0
		c0.6,0,1.1,0.1,1.5,0.2C7,0.4,7.3,0.6,7.6,0.8C7.9,1,8.1,1.3,8.2,1.6C8.3,1.8,8.4,2.1,8.4,2.4z"/>
</g>
</svg>
